Coordinates
version=1
nRows=17
nColumns=36
inDegrees=yes

Units are S.I. units (second, meters, Newtons, ...)
If the header above contains a line with 'inDegrees', this indicates whether rotational values are in degrees (yes) or radians (no).

endheader
time	pelvis_tilt	pelvis_list	pelvis_rotation	pelvis_tx	pelvis_ty	pelvis_tz	hip_flexion_r	hip_adduction_r	hip_rotation_r	knee_angle_r	knee_angle_r_beta	ankle_angle_r	subtalar_angle_r	mtp_angle_r	hip_flexion_l	hip_adduction_l	hip_rotation_l	knee_angle_l	knee_angle_l_beta	ankle_angle_l	subtalar_angle_l	mtp_angle_l	lumbar_extension	lumbar_bending	lumbar_rotation	arm_flex_r	arm_add_r	arm_rot_r	elbow_flex_r	pro_sup_r	arm_flex_l	arm_add_l	arm_rot_l	elbow_flex_l	pro_sup_l
     15.11666670	      5.53674597	      0.19571566	    179.88951515	      0.27349142	      0.92191748	      0.69228347	     29.83495634	     -4.90890082	     -6.91751915	     22.98637239	      0.40118788	     -6.87068036	    -18.82516357	     -7.49999987	      8.80505469	     -4.30994309	      5.26155387	     50.48872203	      0.88119443	      5.65693922	    -13.83087630	     -7.49999987	    -11.49826147	     -1.29543705	     -2.73858144	      1.18829538	    -15.52345397	     -7.21145778	     25.58828224	     83.90833010	     14.79605042	    -14.59346077	      3.07795732	     21.34200765	     88.24539202
     15.13333330	      5.87844719	      0.53612941	    179.77338230	      0.27629717	      0.92054125	      0.68298034	     31.05295176	     -4.14639225	     -6.46266137	     26.35286937	      0.45994434	     -5.93645561	    -21.06900648	     -7.49999987	     11.71066344	     -5.15058744	      6.02324665	     56.40756716	      0.98449777	      3.34857279	    -14.85265725	     -7.49999987	    -11.68760960	     -1.05002997	     -1.96254430	      1.53574359	    -15.59063772	     -7.14550408	     25.97938234	     83.93497683	     14.34315943	    -14.51019042	      3.15555629	     21.40531543	     88.54687537
     15.15000000	      6.37531535	      0.69277464	    179.79724261	      0.27623337	      0.92227585	      0.67462554	     31.94552209	     -3.42337085	     -5.62706849	     29.10952419	      0.50805704	     -4.80664231	    -22.88275353	     -7.49999987	     14.64175722	     -5.88989933	      6.69943081	     61.50495697	      1.07346401	      0.44335947	    -15.25942222	     -7.49999987	    -11.83985937	     -1.04309824	     -1.59531478	      2.18081116	    -15.42449226	     -6.60636926	     26.37268553	     82.39400454	     13.51638044	    -14.67340203	      3.25058898	     22.01182409	     87.18059554
     15.16666670	      6.82030421	      0.84792806	    179.93621756	      0.27204372	      0.92581197	      0.66845011	     32.19716915	     -2.72068544	     -4.93337034	     31.12974287	      0.54331651	     -3.32557788	    -24.05930337	     -7.49999987	     17.25997856	     -6.52966375	      7.35227722	     65.58446349	      1.14466483	     -3.01023206	    -15.27581837	     -7.49999987	    -11.76952627	     -1.05649896	     -1.20240547	      2.85953118	    -15.11868546	     -6.03705882	     26.40973611	     81.67655854	     12.93181939	    -14.67121959	      3.28279684	     21.94307934	     86.53662140
     15.18333330	      6.96924383	      1.00659003	    180.08134171	      0.26672681	      0.92821245	      0.66499056	     31.69562701	     -2.09675737	     -4.56965775	     32.52418530	      0.56765412	     -1.87506349	    -24.95494265	     -7.49999987	     19.48484675	     -6.89348044	      7.96871746	     69.00707430	      1.20440065	     -6.46073953	    -15.44392025	     -7.49999987	    -11.69457830	     -1.03559679	     -0.49528494	      3.26601380	    -14.85632545	     -5.66137151	     26.71297857	     82.00399377	     12.69097867	    -14.50951631	      3.22545651	     21.61887005	     86.94561048
     15.20000000	      6.55595809	      0.95573290	    180.13267687	      0.26280730	      0.93163419	      0.66310822	     30.29628184	     -1.65261251	     -4.20160225	     33.27797047	      0.58081015	     -0.63728351	    -25.68909127	     -7.49999987	     21.19821947	     -6.86725047	      8.19185924	     71.87021922	      1.25437196	     -8.53021287	    -15.00431914	     -7.49999987	    -12.15926651	     -1.25501852	      0.20411873	      3.84936233	    -14.33075576	     -5.50925378	     26.90217546	     82.05067061	     12.50126511	    -14.42132185	      3.19804799	     21.48408461	     86.97445649
     15.21666670	      6.21467405	      0.83423379	    180.51633763	      0.26063643	      0.93585762	      0.66168194	     28.62802098	     -1.53447930	     -4.33516509	     33.15976941	      0.57874716	      0.38743137	    -26.33917237	     -7.49999987	     23.25419327	     -6.40100294	      8.50507530	     74.10496334	      1.29337560	    -10.15430875	    -15.71621324	     -7.49999987	    -12.22804042	     -1.45187625	      0.84343080	      4.17538782	    -13.94165939	     -5.31396817	     26.95080203	     82.17237666	     12.41462874	    -14.12720954	      3.14921350	     21.09573927	     87.07096124
     15.23333330	      5.65412805	      0.60964856	    181.11523532	      0.26050834	      0.94085713	      0.65929139	     26.56001377	     -1.58517260	     -4.49289101	     32.20514004	      0.56208573	      0.38302839	    -26.15935317	     -7.49999987	     25.16347182	     -5.82771330	      8.56342031	     75.32317088	      1.31463733	    -11.50919344	    -17.14419431	     -7.49999987	    -12.47040413	     -1.87663158	      1.41812797	      4.39129912	    -13.62244155	     -5.05166654	     27.04786500	     82.51360011	     12.81922636	    -13.82329132	      3.05657010	     19.83446529	     87.40996356
     15.25000000	      5.00417700	      0.25761975	    181.64589976	      0.26229515	      0.94669315	      0.65663717	     24.54598964	     -1.55155858	     -3.91536533	     30.91570810	      0.53958090	      0.70739462	    -25.05724936	     -7.49999987	     26.84737774	     -5.61155484	      7.83822962	     75.37354724	      1.31551657	    -11.66906245	    -17.21712950	     -7.49999987	    -13.03490313	     -2.51233878	      2.32015497	      4.16884944	    -13.10547773	     -5.30242737	     27.85270927	     83.62372272	     13.61111154	    -13.39129799	      3.34198194	     18.45770779	     88.76659244
     15.26666670	      4.92806408	     -0.00194434	    182.31180540	      0.26439248	      0.95211383	      0.65575940	     23.21043513	     -1.37979487	     -2.88658027	     29.41022965	      0.51330534	      0.72417499	    -23.12562390	     -7.49999987	     29.01000377	     -5.62185596	      6.90092513	     74.47684465	      1.29986616	    -11.64566851	    -17.18042349	     -7.49999987	    -13.02640927	     -3.10439853	      2.45747878	      4.47261971	    -12.45501630	     -5.63712859	     27.60379671	     83.64702425	     13.57137589	    -13.35660714	      3.43020711	     18.06732045	     88.59922599
     15.28333330	      4.40947287	     -0.20588178	    183.15492641	      0.26424764	      0.95898929	      0.65645018	     21.08858539	     -1.22648231	     -1.85967030	     27.42936137	      0.47873267	      0.83803334	    -20.44204325	     -7.49999987	     30.13171225	     -5.69699625	      5.85262596	     72.41013088	      1.26379520	    -12.51905326	    -18.11653799	     -7.49999987	    -13.82619624	     -3.52238105	      2.83560019	      3.82293013	    -12.18381455	     -6.22357406	     29.56503758	     84.16113261	     13.62045622	    -13.07932726	      3.15800569	     18.52761044	     88.84615876
     15.30000000	      4.15276828	     -0.42577930	    183.88162328	      0.26260124	      0.96729501	      0.65671445	     19.00650288	     -1.05472453	     -0.51261522	     25.45586600	      0.44428868	      0.66743125	    -18.34999323	     -7.49999987	     30.89863931	     -5.87708869	      4.53932742	     69.35117627	      1.21040637	    -13.67227567	    -19.19479091	     -7.49999987	    -14.00378689	     -3.93602494	      3.02468822	      3.72383196	    -11.79966372	     -6.70602762	     29.89102195	     84.80604598	     13.37054429	    -12.67168235	      2.55727407	     18.41174278	     89.15800747
     15.31666670	      3.82267149	     -0.52367904	    184.49443648	      0.26310679	      0.97731264	      0.65660513	     16.71961235	     -0.74842855	      0.64192319	     23.77904038	      0.41502255	      0.47452062	    -17.16154810	     -7.49999987	     31.09139147	     -6.19677493	      3.11927226	     65.32847144	      1.14019692	    -15.24805224	    -20.76847159	     -7.49999987	    -14.21796278	     -4.16422867	      3.32076671	      3.93693913	    -11.64055020	     -6.67346675	     29.89869820	     85.15950907	     13.01902417	    -12.15875548	      2.07284627	     18.30398129	     89.12058287
     15.33333330	      3.58793192	     -0.42662540	    184.82435767	      0.26634484	      0.98606256	      0.65641732	     14.55486908	     -0.16573239	      1.57972571	     22.50324958	      0.39275580	      0.19365675	    -16.94673551	     -7.49999987	     31.07112428	     -6.74934175	      1.43153693	     60.68913182	      1.05922517	    -16.95659388	    -22.33910751	     -7.49999987	    -14.31987162	     -4.20452714	      3.85837464	      4.70684453	    -11.70206979	     -6.05292329	     29.54475346	     84.75739278	     12.59811414	    -11.57604397	      1.65284437	     18.37775519	     88.21355682
     15.35000000	      3.29730939	     -0.21420016	    184.95889103	      0.27061031	      0.99125875	      0.65641202	     12.21660559	      0.52561417	      2.08329838	     21.17495346	      0.36957266	     -0.08711388	    -16.80647497	     -7.49999987	     30.76820340	     -7.36246700	     -0.48880454	     55.65762148	      0.97140875	    -18.70259979	    -23.93790468	     -7.49999987	    -14.73967396	     -4.04879454	      4.82799256	      5.50149062	    -11.99852170	     -5.29407050	     30.12549386	     83.97918982	     12.54376840	    -10.97241814	      1.79820985	     18.59203265	     86.86605290
     15.36666670	      2.99974528	      0.36887677	    185.19420287	      0.27589806	      0.99287063	      0.65701138	     10.27177701	      1.42905392	      1.73267767	     20.37275859	      0.35557172	     -0.45944565	    -16.38145172	     -7.49999987	     30.52810378	     -8.20724186	     -2.28254591	     50.42467698	      0.88007664	    -19.75784795	    -24.62339636	     -7.49999987	    -15.26490541	     -3.37737557	      5.57743738	      6.62699514	    -12.71431049	     -3.53645687	     30.96583258	     83.49613230	     12.78613777	    -10.27062023	      1.67586517	     18.14431793	     85.69323264
     15.38333330	      2.83998905	      1.10073686	    185.26024335	      0.28266013	      0.99062306	      0.65795447	      8.82865201	      2.41678513	      1.53467274	     19.94704661	      0.34814164	     -0.41428472	    -15.36029936	     -7.49999987	     30.49145901	     -9.15268150	     -4.20079307	     44.80804899	      0.78204799	    -20.60623234	    -25.04004303	     -7.49999987	    -16.01225975	     -2.49627882	      6.51218978	      7.77924585	    -13.50948482	     -2.19184414	     31.94978786	     84.10061131	     13.07506915	     -9.52157999	      1.55706983	     18.60233626	     85.93145615
